<?xml version="1.0" standalone="no"?>
<!DOCTYPE svg PUBLIC "-//W3C//DTD SVG 20010904//EN"
 "http://www.w3.org/TR/2001/REC-SVG-20010904/DTD/svg10.dtd">
<svg version="1.0" xmlns="http://www.w3.org/2000/svg"
 width="600.000000pt" height="600.000000pt" viewBox="0 0 600.000000 600.000000"
 preserveAspectRatio="xMidYMid meet">
<g transform="translate(0.000000,600.000000) scale(0.100000,-0.100000)"
fill="#000000" stroke="none">
<path d="M3065 4717 c-251 -220 -578 -369 -1092 -498 l-93 -24 0 -620 c0 -574
2 -627 20 -710 55 -261 175 -474 394 -703 191 -199 353 -315 649 -468 218
-111 170 -111 392 -2 162 80 177 89 307 175 343 229 605 549 708 863 59 180
60 196 60 859 l0 606 -102 24 c-358 82 -715 228 -943 386 -78 55 -200 154
-215 175 -3 4 -41 -24 -85 -63z m69 31 c-5 -8 -2 -9 12 -4 10 4 15 4 11 0 -3
-4 14 -21 38 -39 36 -25 42 -34 32 -44 -9 -10 -8 -11 6 -6 9 4 17 3 17 -3 0
-5 9 -12 20 -15 11 -3 19 -11 18 -19 -2 -7 4 -12 13 -10 9 1 29 -10 45 -25 16
-15 34 -28 39 -28 19 -1 104 -62 97 -70 -4 -5 -1 -5 6 -1 7 4 44 -9 86 -32 41
-22 77 -38 80 -34 3 3 6 0 6 -6 0 -7 7 -12 16 -12 8 0 12 -4 9 -10 -3 -6 1 -7
9 -4 9 3 29 0 46 -7 32 -15 42 -32 13 -23 -14 5 -15 4 -4 -4 8 -6 19 -8 26 -6
12 5 129 -31 198 -60 20 -9 37 -13 37 -10 0 4 7 1 15 -6 8 -6 19 -9 25 -5 5 3
10 1 10 -4 0 -6 3 -10 8 -10 15 3 73 -14 78 -22 3 -5 9 -7 14 -4 5 3 30 -2 57
-11 26 -10 58 -17 69 -16 12 1 27 -5 34 -13 7 -8 18 -15 24 -15 6 0 4 5 -4 11
-12 9 -12 10 3 5 10 -3 23 -6 28 -6 7 0 10 -116 8 -322 -1 -178 -1 -325 0
-328 7 -17 4 -330 -2 -330 -5 0 -5 -10 -1 -22 9 -30 5 -204 -6 -265 -11 -60
-38 -162 -50 -188 -8 -19 -18 -49 -22 -70 -1 -5 -8 -16 -15 -24 -8 -7 -12 -20
-9 -27 3 -9 0 -11 -11 -7 -10 4 -14 2 -10 -4 10 -15 -3 -44 -15 -37 -6 4 -8
-1 -4 -12 7 -24 -28 -69 -46 -58 -10 6 -10 5 -1 -7 15 -19 1 -45 -18 -33 -12
6 -12 5 0 -9 9 -12 10 -17 2 -17 -7 0 -10 -4 -7 -8 5 -9 -18 -32 -49 -50 -10
-5 -20 -17 -21 -26 -1 -9 2 -14 7 -10 5 3 7 9 4 14 -3 4 2 11 11 14 18 7 12
-4 -30 -56 -17 -21 -36 -38 -41 -38 -6 0 -15 -10 -20 -22 -6 -13 -16 -22 -22
-21 -6 1 -10 -5 -9 -13 0 -9 -15 -28 -34 -42 -26 -20 -31 -22 -20 -7 14 18 14
19 -2 7 -9 -8 -15 -19 -12 -25 2 -7 -12 -26 -32 -42 -19 -17 -49 -43 -66 -58
-17 -16 -28 -21 -24 -12 3 9 2 13 -4 10 -6 -3 -10 -13 -10 -20 0 -8 -9 -19
-20 -25 -11 -6 -20 -9 -20 -7 0 2 -23 -19 -51 -45 -28 -26 -56 -48 -63 -48 -6
0 -4 5 4 10 9 6 10 10 3 10 -7 0 -17 -8 -22 -19 -6 -10 -24 -24 -40 -31 -17
-7 -28 -16 -25 -21 3 -5 -3 -6 -12 -2 -12 4 -15 3 -10 -5 5 -8 -3 -14 -23 -18
-17 -4 -31 -9 -31 -13 0 -11 -64 -46 -79 -43 -8 2 -10 -1 -6 -8 5 -9 1 -10
-15 -5 -15 5 -20 3 -16 -3 9 -15 -7 -22 -24 -11 -13 7 -13 9 0 9 12 0 12 2 2
9 -9 6 3 16 41 35 60 29 71 32 61 13 -4 -6 -4 -9 0 -5 4 3 8 10 9 15 3 21 22
31 42 20 18 -9 18 -8 7 5 -15 18 0 33 23 24 10 -3 12 0 8 11 -5 13 -2 15 11
10 9 -4 15 -3 11 2 -3 5 9 13 27 16 26 6 29 9 14 17 -13 7 -32 0 -79 -30 -72
-45 -155 -90 -283 -156 l-91 -46 -109 56 c-288 148 -438 252 -623 429 -223
214 -356 438 -418 708 -15 63 -17 144 -16 661 l1 588 134 34 c395 101 757 259
964 420 32 24 62 44 67 44 5 0 26 -15 47 -32 66 -57 358 -224 445 -256 17 -6
55 -20 85 -32 111 -43 357 -120 472 -147 l118 -28 0 -582 c0 -464 -3 -596 -14
-655 -51 -262 -186 -491 -431 -732 -85 -84 -248 -216 -267 -216 -4 0 -8 -4 -8
-10 0 -5 9 -10 20 -10 11 0 20 4 20 9 0 4 18 20 39 34 35 24 40 25 45 9 4 -14
5 -13 4 3 -1 34 1 36 25 25 19 -10 20 -9 5 3 -15 12 -15 15 10 29 30 18 113
96 149 141 13 15 30 27 39 27 8 0 13 4 10 9 -3 5 2 15 11 22 14 12 16 12 8 0
-5 -10 -4 -12 3 -7 7 4 12 14 12 22 0 8 5 14 10 14 6 0 10 5 10 11 0 6 18 34
40 61 22 28 40 47 40 43 0 -4 7 -2 15 5 8 7 12 17 9 22 -3 5 12 36 35 69 22
32 43 70 47 84 3 14 10 25 15 25 5 0 9 9 9 21 0 11 4 18 8 15 4 -2 14 4 21 16
7 11 8 17 2 13 -6 -3 -11 -1 -11 4 0 6 4 11 9 11 5 0 12 15 16 33 4 17 9 34
10 37 1 3 5 22 9 43 7 29 11 35 21 27 10 -8 15 -8 21 1 4 8 3 9 -5 5 -20 -12
-24 23 -8 64 13 34 15 125 17 638 0 329 -2 606 -6 615 -3 9 -12 17 -20 17 -8
0 -14 4 -14 8 0 5 -14 8 -31 7 -17 -1 -33 4 -35 10 -3 7 -18 12 -33 11 -32 0
-112 24 -107 33 2 3 -8 7 -22 7 -42 2 -146 35 -134 43 6 3 -6 7 -26 8 -20 1
-44 3 -52 6 -8 3 -25 8 -37 12 -13 4 -23 11 -23 16 0 5 -7 9 -15 9 -24 0 -125
37 -154 57 -14 10 -30 16 -35 15 -5 -2 -17 5 -27 14 -11 9 -19 14 -19 11 0 -8
-147 69 -213 111 -26 16 -43 33 -39 37 4 5 -1 5 -10 2 -10 -4 -18 -3 -18 2 0
4 -26 27 -58 49 -54 37 -61 40 -79 27 -11 -8 -24 -11 -28 -7 -3 4 -5 1 -3 -6
2 -6 -13 -22 -31 -34 -19 -12 -31 -16 -26 -9 5 10 4 12 -3 7 -7 -4 -12 -14
-12 -22 0 -13 -12 -19 -33 -15 -5 1 -6 -3 -3 -8 3 -5 -1 -12 -10 -15 -10 -4
-13 -2 -8 7 4 6 -5 0 -21 -15 -15 -16 -34 -28 -41 -28 -8 0 -14 -5 -14 -11 0
-5 -4 -7 -10 -4 -5 3 -10 1 -10 -5 0 -6 -4 -9 -9 -6 -5 3 -12 -1 -15 -10 -4
-10 -13 -13 -27 -9 -12 4 -19 3 -16 -1 3 -5 -36 -29 -86 -53 -171 -82 -231
-106 -252 -97 -9 3 -14 2 -11 -3 7 -10 -64 -32 -77 -24 -6 4 -7 1 -2 -7 6 -10
1 -11 -21 -6 -18 4 -24 3 -16 -2 10 -7 -9 -14 -59 -26 -39 -9 -78 -21 -86 -27
-10 -9 -17 -8 -29 1 -12 11 -15 11 -12 0 3 -16 -116 -52 -140 -42 -11 4 -13 1
-7 -7 5 -10 2 -11 -14 -6 -15 5 -21 2 -21 -9 0 -9 -7 -16 -15 -16 -8 0 -15 -5
-15 -11 0 -5 5 -7 10 -4 6 3 10 1 10 -4 0 -6 -4 -11 -8 -11 -5 0 -6 -24 -2
-52 4 -29 6 -302 6 -605 -1 -304 1 -553 5 -553 4 0 9 3 12 8 2 4 2 1 0 -7 -3
-14 12 -72 29 -104 5 -10 6 -22 3 -27 -4 -6 -1 -10 5 -10 7 0 10 -12 8 -27 -2
-18 2 -27 10 -25 10 2 17 -25 13 -50 0 -5 3 -8 8 -8 4 0 16 -21 26 -47 10 -27
22 -54 28 -60 5 -7 7 -19 4 -27 -4 -10 -1 -13 7 -10 8 3 17 -1 22 -8 4 -7 4
-10 -1 -6 -4 4 -16 3 -26 -3 -15 -7 -22 -4 -35 16 -9 14 -14 31 -11 39 4 10 1
13 -9 9 -12 -5 -19 7 -15 30 0 4 -3 7 -8 7 -12 0 -41 75 -44 113 -1 9 -5 17
-10 17 -5 0 -6 7 -3 16 3 8 2 12 -4 9 -10 -6 -12 0 -13 48 -1 19 -5 26 -15 22
-7 -2 -11 -1 -8 3 3 5 -2 40 -11 78 -12 58 -15 170 -17 677 -2 454 1 610 9
617 11 9 101 40 115 40 3 0 -2 -5 -10 -10 -11 -7 -11 -10 -2 -10 7 0 25 8 39
18 21 13 25 14 18 2 -8 -13 -7 -13 10 0 10 8 27 14 38 12 12 -2 17 1 13 7 -4
6 -4 11 1 12 4 0 15 2 23 4 8 2 24 5 35 7 11 2 26 7 33 11 6 5 17 5 23 1 6 -3
14 -2 18 3 8 13 103 45 96 33 -3 -6 1 -7 9 -4 9 3 16 10 16 15 0 5 10 9 23 9
12 0 33 8 46 17 18 12 22 13 16 2 -5 -9 -1 -7 12 4 11 9 27 17 35 17 9 0 21 7
28 15 7 8 20 15 29 15 9 0 36 10 61 22 25 12 49 20 54 19 5 -1 18 7 30 17 11
11 40 27 63 37 23 10 41 23 40 29 -1 6 9 11 23 11 14 0 26 4 27 8 5 18 34 38
44 31 8 -5 9 -3 4 6 -5 9 0 11 21 8 16 -3 23 -3 17 -1 -18 6 -16 16 7 36 22
19 35 22 25 7 -3 -5 -4 -10 0 -10 3 0 10 12 15 26 6 14 14 23 19 19 5 -3 12
-1 16 5 4 6 11 8 16 5 5 -3 6 0 3 8 -7 18 44 60 64 52 12 -4 12 -2 4 8 -7 8
-9 17 -5 20 10 11 15 8 7 -5z m-259 -208 c3 -5 1 -10 -4 -10 -6 0 -11 5 -11
10 0 6 2 10 4 10 3 0 8 -4 11 -10z m-753 -2092 c-6 -6 -15 -8 -19 -4 -4 4 -1
11 7 16 19 12 27 3 12 -12z m28 13 c0 -5 -7 -17 -16 -25 -8 -9 -11 -16 -5 -16
5 0 13 5 17 11 7 13 43 -27 44 -48 0 -6 4 -13 8 -15 5 -1 26 -26 48 -53 21
-28 58 -68 82 -89 23 -21 42 -45 42 -54 0 -8 2 -13 5 -10 7 7 81 -61 78 -72
-1 -4 5 -7 14 -6 9 0 18 -4 20 -9 2 -7 -12 -11 -34 -10 -25 0 -37 4 -35 13 1
6 -2 12 -7 12 -16 0 -71 54 -71 70 0 13 -1 13 -10 0 -8 -13 -10 -13 -10 1 0 9
-14 26 -30 39 -17 13 -28 25 -25 28 2 3 -6 13 -19 23 -13 11 -37 39 -54 64
-16 24 -33 41 -37 37 -4 -4 -5 7 -3 23 2 22 -1 30 -12 30 -30 0 -37 18 -15 41
24 26 25 27 25 15z m320 -415 c0 6 8 11 17 11 15 0 59 -32 160 -116 12 -10 25
-16 29 -12 4 3 5 -1 1 -11 -7 -21 27 -55 39 -37 4 7 3 10 -3 6 -6 -4 -16 0
-23 8 -7 8 -9 15 -4 15 13 0 71 -40 59 -40 -5 -1 5 -7 23 -15 23 -10 31 -19
26 -27 -6 -10 -5 -10 7 -1 12 10 21 8 47 -10 17 -12 30 -27 27 -34 -2 -7 2
-10 10 -7 8 3 40 -7 72 -22 34 -16 52 -29 44 -32 -8 -3 -17 0 -19 7 -2 6 -8
11 -14 11 -6 0 -5 -6 3 -16 8 -9 21 -13 35 -10 15 4 43 -4 79 -24 45 -24 60
-28 76 -19 11 6 30 12 41 14 11 3 28 11 37 18 26 22 107 59 88 40 -4 -3 -1
-13 6 -21 10 -13 9 -15 -5 -9 -10 3 -18 2 -18 -3 0 -6 -9 -10 -19 -10 -10 0
-22 -7 -25 -16 -4 -10 -14 -14 -26 -11 -11 3 -18 2 -15 -3 3 -4 -2 -11 -11
-14 -10 -4 -13 -2 -8 7 4 6 -2 4 -14 -7 -12 -10 -28 -16 -37 -13 -8 4 -15 3
-15 -2 0 -4 -7 -8 -15 -8 -8 0 -12 4 -9 8 2 4 -6 9 -18 11 -13 2 -22 9 -20 16
2 10 -3 10 -17 2 -16 -8 -23 -6 -34 10 -7 11 -16 17 -19 14 -9 -9 -138 57
-151 77 -6 10 -20 19 -30 19 -11 0 -30 9 -44 20 -14 11 -32 20 -39 20 -8 0
-14 3 -14 8 0 7 -61 46 -71 44 -3 0 -28 21 -57 47 -28 26 -53 44 -54 39 -4 -9
-98 76 -98 88 0 5 5 2 10 -6 5 -8 10 -10 10 -4z"/>
<path d="M3079 4693 c-13 -16 -12 -17 4 -4 9 7 17 15 17 17 0 8 -8 3 -21 -13z"/>
<path d="M3100 4660 c-9 -6 -10 -10 -3 -10 6 0 15 5 18 10 8 12 4 12 -15 0z"/>
<path d="M3044 4619 c-3 -6 -2 -15 3 -20 5 -5 9 -1 9 11 0 23 -2 24 -12 9z"/>
<path d="M3130 4576 c7 -7 13 -7 20 0 6 6 3 10 -10 10 -13 0 -16 -4 -10 -10z"/>
<path d="M3085 4500 c-193 -152 -552 -307 -943 -406 l-112 -29 0 -495 c0 -610
8 -687 82 -872 109 -276 359 -556 673 -754 131 -83 196 -120 280 -159 l79 -38
96 48 c481 243 832 590 950 940 58 172 60 196 60 791 l0 544 -27 6 c-183 41
-472 130 -581 180 -29 13 -56 24 -59 24 -28 0 -329 172 -404 231 -20 16 -38
29 -40 28 -2 0 -26 -18 -54 -39z m50 0 c-3 -5 0 -8 7 -5 18 7 94 -39 90 -54
-1 -7 2 -10 8 -6 5 3 43 -17 84 -46 46 -32 79 -48 87 -44 8 6 10 4 4 -5 -6
-10 -4 -12 8 -7 9 3 18 0 21 -9 3 -8 15 -14 26 -14 11 0 20 -4 20 -10 0 -5 9
-10 21 -10 11 0 17 -4 14 -10 -3 -5 0 -7 8 -4 8 3 21 -2 30 -10 9 -9 23 -16
32 -16 9 0 32 -8 53 -19 20 -10 50 -21 65 -25 15 -4 26 -10 23 -15 -3 -4 7 -8
22 -8 15 0 52 -10 82 -22 30 -13 74 -28 98 -35 24 -6 41 -14 37 -17 -3 -4 10
-5 30 -3 19 1 35 -2 35 -8 0 -6 11 -8 25 -6 15 3 22 1 18 -5 -4 -6 2 -8 15 -5
12 4 25 2 28 -3 3 -5 17 -9 32 -9 45 0 74 -11 68 -26 -3 -8 -2 -14 2 -14 4 0
5 -251 2 -557 -4 -425 -8 -565 -18 -587 -7 -16 -10 -36 -8 -43 3 -8 2 -11 -3
-8 -6 3 -9 -7 -9 -22 1 -16 -9 -48 -21 -72 -11 -25 -21 -49 -21 -54 0 -23 -44
-106 -53 -100 -6 4 -8 0 -4 -10 3 -9 1 -20 -6 -24 -7 -5 -24 -30 -38 -58 -15
-27 -31 -49 -37 -48 -5 1 -13 -9 -16 -22 -4 -14 -11 -25 -16 -25 -6 0 -10 -6
-10 -13 0 -19 -35 -49 -45 -40 -4 5 -5 2 -1 -5 5 -8 -27 -45 -87 -105 -85 -83
-119 -113 -190 -169 -12 -10 -27 -22 -34 -28 -7 -5 -17 -10 -22 -10 -6 0 -21
-11 -34 -24 -17 -17 -28 -21 -35 -14 -6 6 -12 6 -17 -3 -5 -8 -4 -10 3 -5 7 4
12 3 12 -2 0 -5 -12 -15 -27 -23 -16 -8 -32 -20 -36 -26 -4 -7 -16 -13 -27
-13 -10 0 -25 -6 -33 -14 -7 -8 -35 -23 -60 -35 -26 -12 -47 -26 -47 -31 0 -6
-10 -10 -21 -10 -12 0 -27 -6 -33 -14 -15 -19 -107 -48 -120 -38 -6 5 -27 15
-46 22 -19 8 -53 25 -75 40 -22 14 -57 34 -77 45 -20 10 -35 22 -32 27 3 4 -2
5 -10 2 -10 -4 -16 -1 -16 7 0 7 -3 10 -6 6 -3 -3 -15 3 -27 13 -11 11 -24 17
-29 14 -5 -3 -7 6 -4 20 3 15 1 24 -5 21 -5 -4 -7 -11 -4 -16 9 -14 -3 -11
-45 14 -22 12 -40 28 -40 35 0 6 -4 11 -8 10 -12 -4 -59 29 -104 73 -21 20
-38 34 -38 32 0 -7 -178 174 -230 234 -25 29 -55 71 -67 94 -13 23 -23 38 -23
33 -1 -5 -7 2 -14 15 -8 14 -11 32 -8 40 3 9 1 13 -3 8 -9 -7 -53 76 -54 101
-1 7 -5 11 -10 8 -5 -4 -12 12 -16 34 -4 22 -11 40 -17 40 -6 0 -8 11 -6 25 3
13 2 22 -2 20 -4 -3 -10 8 -13 23 -3 15 -11 49 -17 75 -9 37 -9 51 1 63 6 8 9
17 5 21 -3 3 -7 0 -7 -8 -1 -8 -5 6 -9 31 -3 25 -7 271 -8 547 l-1 501 31 11
c17 6 41 11 53 11 12 0 25 3 28 7 4 3 21 8 39 10 18 2 35 8 39 14 4 6 17 8 30
4 19 -5 21 -4 9 5 -12 9 -9 10 13 5 19 -4 26 -2 22 5 -3 5 3 10 14 10 21 0 95
22 146 44 17 7 60 22 97 32 36 10 65 21 62 25 -4 8 54 23 76 19 8 -1 12 1 8 5
-4 4 49 35 118 70 69 35 134 71 144 80 11 10 26 15 34 12 9 -4 13 -1 11 6 -4
11 56 57 75 57 4 0 10 7 14 15 3 8 10 15 16 15 6 0 8 -4 5 -10z"/>
<path d="M3193 3983 c4 -6 0 -14 -9 -17 -23 -9 -36 -7 -29 4 3 6 1 10 -4 10
-6 0 -11 -4 -11 -8 0 -8 -46 -14 -117 -15 -18 0 -33 -4 -33 -8 0 -5 -7 -6 -15
-2 -9 3 -15 1 -13 -6 4 -18 -68 -41 -82 -27 -8 8 -10 7 -5 -5 4 -10 0 -19 -9
-22 -9 -4 -16 -1 -17 6 0 7 -5 1 -10 -12 -6 -15 -15 -21 -24 -17 -8 3 -14 2
-12 -3 2 -9 -93 -106 -105 -106 -5 0 -8 -3 -8 -8 0 -4 -15 -35 -34 -70 -34
-62 -71 -171 -67 -194 1 -7 -4 -13 -11 -13 -9 0 -9 -3 -1 -11 7 -7 8 -20 3
-34 -5 -13 -4 -41 2 -66 5 -24 10 -59 10 -76 0 -18 4 -33 9 -33 5 0 9 -6 9
-13 0 -8 11 -36 25 -63 28 -55 29 -58 15 -49 -5 3 -10 -1 -10 -9 0 -9 -5 -16
-11 -16 -5 0 -7 5 -3 12 4 7 3 8 -5 4 -6 -4 -9 -11 -6 -15 2 -5 -7 -19 -21
-32 -17 -15 -23 -18 -19 -7 4 9 2 19 -3 22 -5 3 -8 -8 -6 -25 3 -24 0 -29 -13
-27 -10 2 -18 -4 -18 -12 -1 -8 -7 -14 -14 -12 -7 1 -10 -2 -7 -7 7 -11 -19
-33 -28 -23 -4 4 -6 0 -4 -8 2 -8 -3 -14 -10 -12 -8 1 -11 -2 -8 -7 7 -11 -22
-23 -36 -15 -7 4 -7 0 0 -12 8 -15 6 -25 -8 -42 -15 -18 -16 -28 -7 -57 5 -19
19 -37 29 -41 10 -3 15 -10 12 -16 -5 -7 0 -9 13 -6 11 3 28 1 38 -5 14 -7 16
-7 10 3 -6 10 -2 12 14 7 13 -3 20 -3 17 0 -3 3 7 17 22 29 29 25 48 32 36 12
-5 -7 -3 -8 5 -3 8 5 9 11 3 17 -14 14 51 83 68 73 9 -5 11 -4 6 3 -4 6 11 29
32 51 22 22 37 43 33 46 -3 3 2 3 12 -1 9 -3 14 -10 11 -15 -3 -5 4 -9 15 -9
11 0 24 -8 30 -17 5 -10 12 -17 15 -15 15 6 19 1 6 -8 -11 -8 -7 -9 14 -4 21
5 27 4 22 -5 -4 -6 -1 -11 9 -11 10 0 13 -5 9 -12 -5 -7 -3 -8 5 -3 7 4 23 3
34 -3 46 -22 124 -40 181 -41 33 -1 63 -4 66 -6 4 -2 40 7 81 19 41 13 81 25
89 27 8 2 18 9 22 14 8 12 78 16 78 5 0 -4 6 -7 13 -6 6 0 12 -2 12 -6 0 -4
14 -18 32 -31 26 -19 30 -26 20 -37 -10 -12 -9 -12 5 -2 10 8 18 9 22 3 4 -5
-2 -15 -11 -21 -16 -10 -15 -10 5 -5 18 5 36 -7 99 -69 69 -69 93 -87 93 -70
0 3 -64 69 -142 145 -118 115 -146 138 -160 129 -13 -7 -24 -3 -47 21 -37 37
-38 47 -6 59 27 10 122 101 147 140 l15 25 37 -25 c20 -14 34 -31 31 -37 -3
-7 -7 -19 -10 -26 -3 -8 9 -24 28 -38 19 -13 83 -70 141 -126 59 -56 113 -101
119 -99 7 1 8 1 4 -2 -5 -2 -1 -12 9 -23 9 -10 19 -38 21 -62 4 -36 1 -48 -22
-75 -34 -40 -87 -52 -128 -28 -16 9 -33 13 -38 10 -13 -7 20 -33 43 -34 9 0
18 -6 21 -12 3 -10 7 -10 19 -1 8 7 17 10 20 7 4 -3 20 2 38 11 63 33 91 126
51 176 -11 14 -17 36 -16 54 2 17 1 24 -2 17 -3 -6 -9 -10 -14 -6 -5 3 -9 0
-9 -6 0 -6 -5 -8 -10 -5 -6 4 -7 11 -4 17 4 6 3 9 -2 5 -5 -3 -18 1 -29 9 -10
8 -16 14 -12 14 4 0 -2 9 -13 20 -12 12 -18 26 -14 32 5 7 3 8 -5 3 -7 -4 -22
2 -37 16 -18 17 -21 25 -12 36 17 20 -6 41 -26 24 -12 -10 -19 -8 -35 8 -12
12 -21 26 -21 33 0 6 -3 9 -6 5 -4 -3 -13 1 -22 9 -13 14 -13 17 -1 25 12 8
12 10 0 18 -7 5 -11 13 -7 19 3 6 -12 21 -34 33 -28 16 -39 28 -35 39 74 188
30 385 -117 527 -124 120 -342 150 -506 70 -351 -171 -349 -656 3 -824 66 -31
88 -36 168 -40 74 -4 105 -1 156 16 l65 20 24 -26 c28 -31 25 -34 -67 -63 -84
-27 -217 -27 -300 -1 -229 71 -381 272 -381 504 0 155 45 264 154 373 124 125
252 171 435 159 57 -4 99 -10 93 -14 -7 -4 9 -12 34 -19 103 -28 239 -151 294
-266 36 -76 50 -143 50 -240 0 -63 -7 -101 -36 -205 -6 -21 -4 -23 17 -16 19
5 21 4 9 -5 -12 -9 -12 -11 -1 -8 8 2 15 14 16 26 1 18 -1 20 -14 9 -8 -6 -12
-7 -9 -2 38 69 43 93 42 210 0 102 -4 128 -23 172 -13 28 -20 57 -16 62 3 6 2
11 -4 11 -6 0 -20 18 -31 40 -11 22 -25 40 -31 40 -6 0 -8 7 -5 17 4 10 4 15
1 11 -7 -7 -70 54 -67 65 1 5 -2 6 -7 3 -5 -4 -13 0 -18 8 -4 7 -24 23 -43 34
-19 11 -34 25 -32 32 1 6 -2 9 -7 6 -5 -4 -35 5 -67 19 -31 14 -66 25 -78 25
-33 0 -66 11 -61 20 3 5 0 12 -6 16 -7 4 -9 3 -6 -3z m88 -167 c18 -9 38 -16
45 -16 7 0 19 -6 26 -13 7 -7 17 -14 22 -14 11 -1 136 -116 136 -126 0 -5 -4
-5 -10 -2 -6 3 -7 -1 -4 -9 3 -9 10 -14 14 -11 12 7 51 -102 53 -146 1 -21 4
-36 7 -34 8 5 5 -79 -5 -134 -4 -23 -11 -41 -16 -41 -4 0 -6 -7 -3 -15 4 -8
-1 -26 -10 -40 -9 -14 -13 -25 -9 -25 3 0 -3 -10 -14 -22 -11 -13 -23 -31 -27
-42 -4 -11 -12 -16 -22 -12 -8 3 -12 2 -9 -4 3 -5 -2 -15 -10 -22 -9 -7 -25
-21 -36 -31 -10 -9 -25 -16 -32 -15 -6 2 -11 -2 -10 -9 3 -14 -32 -27 -47 -18
-5 3 -10 2 -10 -3 0 -6 -7 -13 -16 -16 -10 -4 -13 -2 -8 7 4 6 -2 3 -14 -7
-12 -11 -25 -16 -29 -13 -3 4 0 7 7 7 7 0 10 3 7 6 -4 4 -13 1 -22 -6 -33 -27
-197 -15 -267 21 -21 11 -38 17 -38 14 0 -5 -13 4 -45 33 -7 6 -18 12 -23 12
-14 0 -97 109 -96 125 1 8 -2 12 -7 9 -13 -8 -40 60 -46 115 -10 91 -10 160
-1 155 5 -3 8 0 7 7 -7 34 31 135 45 122 4 -4 4 -1 1 8 -3 8 6 30 20 49 14 19
25 30 26 24 0 -5 4 1 9 14 12 28 39 39 52 21 7 -10 8 -8 3 7 -4 16 1 26 20 38
14 9 31 14 37 10 7 -5 8 -3 3 6 -6 10 -4 12 9 7 10 -4 15 -3 11 3 -4 6 6 10
22 10 21 0 24 3 14 9 -15 10 -7 13 59 25 54 9 199 -2 231 -18z m-644 -913
c-96 -97 -116 -113 -144 -113 -38 0 -63 22 -63 57 0 20 28 55 116 144 l117
118 43 -47 43 -47 -112 -112z m1113 119 c0 -13 -12 -22 -22 -16 -10 6 -1 24
13 24 5 0 9 -4 9 -8z"/>
<path d="M3018 3813 c7 -3 16 -2 19 1 4 3 -2 6 -13 5 -11 0 -14 -3 -6 -6z"/>
<path d="M3090 3758 c-25 -5 -53 -9 -63 -9 -9 0 -15 -4 -12 -9 6 -10 -24 -24
-45 -21 -8 2 -12 0 -8 -4 10 -10 -31 -47 -44 -39 -7 4 -8 3 -4 -4 10 -16 -6
-15 -24 1 -12 10 -12 9 -2 -4 6 -9 8 -20 4 -24 -4 -5 -1 -5 5 -1 9 5 11 2 7
-8 -3 -9 -10 -14 -14 -11 -4 3 -10 -9 -14 -26 -3 -17 -9 -28 -13 -26 -9 6 -13
-23 -14 -118 -1 -43 3 -71 10 -73 6 -2 11 -12 11 -21 0 -10 9 -30 21 -45 19
-24 18 -31 -4 -27 -5 1 -6 -3 -2 -9 5 -8 11 -8 20 0 9 8 15 8 20 0 3 -5 0 -10
-7 -11 -7 -1 -2 -4 12 -8 14 -4 25 -12 25 -19 0 -6 10 -19 23 -27 12 -9 20
-21 17 -26 -4 -5 2 -6 11 -2 13 5 16 3 11 -10 -4 -12 -2 -14 10 -10 12 5 14 3
8 -8 -4 -8 -5 -11 0 -7 4 4 25 -11 45 -32 41 -43 73 -51 89 -22 6 9 11 13 11
8 0 -12 40 34 40 46 0 5 5 6 10 3 6 -3 10 -1 10 5 0 7 7 9 16 6 9 -3 12 -2 9
4 -4 6 6 24 22 40 64 67 83 90 83 100 0 6 5 8 12 4 8 -5 9 -2 5 9 -3 9 1 24
11 33 9 10 16 19 15 21 -2 2 -3 6 -3 10 0 4 7 -2 15 -13 14 -17 14 -16 0 13
-17 37 -19 47 -5 38 12 -7 6 74 -9 132 -6 22 -20 52 -32 67 -11 14 -17 26 -13
26 4 0 -3 9 -16 20 -13 11 -19 20 -15 20 5 0 -1 10 -13 23 -18 19 -20 26 -10
38 7 8 4 6 -7 -4 -17 -15 -18 -19 -5 -27 8 -5 11 -10 7 -10 -5 0 -22 9 -38 21
-16 11 -44 23 -62 25 -18 3 -41 6 -52 8 -11 2 -40 -1 -65 -6z m167 -47 c125
-64 175 -222 111 -352 -25 -51 -208 -259 -227 -259 -5 0 -56 47 -115 105 -127
124 -150 166 -150 270 0 80 15 118 73 178 36 39 73 63 121 78 39 13 145 2 187
-20z m68 -11 c3 -5 1 -10 -4 -10 -6 0 -11 5 -11 10 0 6 2 10 4 10 3 0 8 -4 11
-10z"/>
<path d="M3135 3690 c-3 -5 -1 -10 4 -10 6 0 11 5 11 10 0 6 -2 10 -4 10 -3 0
-8 -4 -11 -10z"/>
<path d="M3225 3680 c3 -5 8 -10 11 -10 2 0 4 5 4 10 0 6 -5 10 -11 10 -5 0
-7 -4 -4 -10z"/>
<path d="M3000 3660 c0 -5 7 -7 15 -4 8 4 15 8 15 10 0 2 -7 4 -15 4 -8 0 -15
-4 -15 -10z"/>
<path d="M3103 3650 c-30 -7 -57 -22 -93 -52 -26 -21 -50 -83 -50 -127 0 -80
64 -163 136 -177 81 -15 139 11 185 84 54 85 34 188 -47 244 -44 30 -85 38
-131 28z m89 -33 c21 -4 68 -43 68 -56 0 -5 -12 -19 -27 -31 -16 -12 -21 -18
-13 -14 8 5 -3 -13 -25 -38 -22 -25 -42 -42 -43 -37 -2 5 -8 6 -13 3 -5 -3
-29 13 -51 35 -40 38 -44 40 -65 26 -34 -22 -44 -19 -33 10 5 14 7 25 5 25 -3
0 3 9 12 19 9 11 20 18 25 15 5 -3 7 0 6 6 -2 7 13 21 32 31 33 19 53 20 122
6z m95 -93 c8 -21 -11 -53 -71 -117 -71 -77 -82 -77 -156 -5 -60 58 -61 60
-44 79 10 11 21 18 25 17 4 -2 30 -24 57 -50 l50 -48 56 61 c31 33 56 64 56
70 0 15 20 10 27 -7z m-248 -129 c4 -5 18 -17 31 -25 52 -35 55 -39 45 -49
-13 -13 -99 35 -90 50 4 5 -1 9 -9 9 -8 0 -18 10 -21 23 -20 67 -23 68 44 -8z
m237 20 c-4 -14 -11 -23 -16 -20 -5 3 -7 0 -4 -8 3 -9 -7 -23 -25 -37 -17 -12
-31 -18 -31 -15 0 4 -7 -1 -16 -9 -18 -18 -54 -21 -54 -5 0 6 6 9 14 6 7 -3
25 5 38 18 14 13 29 21 32 18 3 -4 6 0 6 7 0 7 11 23 25 36 14 13 25 29 25 35
0 7 3 10 6 6 4 -3 3 -18 0 -32z"/>
<path d="M3301 3614 c6 -7 16 -11 21 -8 11 7 3 17 -18 20 -12 2 -13 -1 -3 -12z"/>
<path d="M3325 3589 c-4 -6 -5 -12 -2 -15 2 -3 7 2 10 11 7 17 1 20 -8 4z"/>
<path d="M2912 3500 c0 -14 2 -19 5 -12 2 6 2 18 0 25 -3 6 -5 1 -5 -13z"/>
<path d="M2974 3331 c4 -5 0 -11 -6 -14 -7 -3 -3 -4 9 -4 17 1 19 4 11 14 -12
15 -22 18 -14 4z"/>
<path d="M3266 3298 c3 -5 10 -6 15 -3 13 9 11 12 -6 12 -8 0 -12 -4 -9 -9z"/>
<path d="M3219 3268 c-1 -7 -1 -19 0 -27 2 -7 -2 -10 -8 -6 -7 4 -8 0 -5 -10
4 -9 7 -15 8 -13 0 2 12 17 26 33 14 17 18 24 10 18 -19 -17 -31 -16 -24 2 4
8 3 15 0 15 -3 0 -7 -6 -7 -12z"/>
<path d="M3143 3208 c2 -31 0 -55 -5 -52 -4 3 -5 -2 -1 -12 5 -15 7 -14 16 2
6 11 14 22 19 25 6 3 3 9 -5 12 -10 4 -13 13 -10 26 3 10 0 28 -7 38 -9 14
-10 7 -7 -39z"/>
<path d="M3400 3625 c0 -5 5 -17 10 -25 5 -8 10 -10 10 -5 0 6 -5 17 -10 25
-5 8 -10 11 -10 5z"/>
<path d="M3180 3080 c-9 -6 -10 -10 -3 -10 6 0 15 5 18 10 8 12 4 12 -15 0z"/>
<path d="M2645 3031 c-3 -5 -2 -12 3 -15 5 -3 9 1 9 9 0 17 -3 19 -12 6z"/>
<path d="M2619 3023 c-6 -33 -5 -52 2 -47 4 2 5 12 2 21 -4 11 -3 14 5 9 8 -5
10 -2 6 8 -7 17 -13 21 -15 9z"/>
<path d="M2676 3005 c-11 -8 -15 -15 -9 -15 6 0 16 7 23 15 16 19 11 19 -14 0z"/>
<path d="M2559 2944 c-10 -12 -10 -17 0 -27 10 -9 11 -8 5 7 -4 12 -4 17 2 13
6 -3 16 -2 23 2 10 7 9 9 -2 14 -9 3 -21 -1 -28 -9z"/>
<path d="M2630 2949 c0 -5 5 -7 10 -4 6 3 10 8 10 11 0 2 -4 4 -10 4 -5 0 -10
-5 -10 -11z"/>
<path d="M2596 2924 c-23 -23 -20 -30 4 -9 11 10 20 20 20 22 0 7 -9 2 -24
-13z"/>
<path d="M2480 2885 c-7 -9 -8 -15 -2 -15 5 0 12 7 16 15 3 8 4 15 2 15 -2 0
-9 -7 -16 -15z"/>
<path d="M2491 2856 l-24 -31 28 27 c16 15 27 29 24 31 -2 3 -15 -10 -28 -27z"/>
<path d="M2516 2843 c-6 -14 -5 -15 5 -6 7 7 10 15 7 18 -3 3 -9 -2 -12 -12z"/>
<path d="M3405 3820 c-4 -6 0 -10 9 -10 8 0 17 -6 19 -12 4 -8 6 -7 6 3 1 19
-25 33 -34 19z"/>
<path d="M2739 3693 c-13 -16 -12 -17 4 -4 9 7 17 15 17 17 0 8 -8 3 -21 -13z"/>
<path d="M2706 3654 c-9 -24 -2 -26 12 -4 7 11 8 20 3 20 -5 0 -12 -7 -15 -16z"/>
<path d="M2071 3264 c0 -11 3 -14 6 -6 3 7 2 16 -1 19 -3 4 -6 -2 -5 -13z"/>
<path d="M2727 3130 c3 -11 9 -17 15 -14 5 3 4 12 -3 20 -16 19 -18 18 -12 -6z"/>
<path d="M2565 3109 c-3 -4 2 -6 10 -5 21 3 28 13 10 13 -9 0 -18 -4 -20 -8z"/>
<path d="M2486 3032 c-3 -5 1 -9 9 -9 8 0 12 4 9 9 -3 4 -7 8 -9 8 -2 0 -6 -4
-9 -8z"/>
<path d="M2856 3001 c-4 -5 -2 -12 3 -15 5 -4 12 -2 15 3 4 5 2 12 -3 15 -5 4
-12 2 -15 -3z"/>
<path d="M3687 2973 c-2 -5 -1 -17 3 -27 6 -19 7 -19 12 2 6 21 -6 40 -15 25z"/>
<path d="M3765 2880 c-3 -6 1 -7 9 -4 18 7 21 14 7 14 -6 0 -13 -4 -16 -10z"/>
<path d="M3730 2706 c7 -7 13 -7 20 0 6 6 3 10 -10 10 -13 0 -16 -4 -10 -10z"/>
<path d="M3981 2684 c0 -11 3 -14 6 -6 3 7 2 16 -1 19 -3 4 -6 -2 -5 -13z"/>
<path d="M3690 2650 c18 -12 30 -13 30 -2 0 4 -10 9 -22 9 -18 2 -20 0 -8 -7z"/>
<path d="M3845 2309 c-4 -6 -5 -12 -2 -15 2 -3 7 2 10 11 7 17 1 20 -8 4z"/>
<path d="M3439 4473 c-13 -16 -12 -17 4 -4 16 13 21 21 13 21 -2 0 -10 -8 -17
-17z"/>
<path d="M2418 4303 c7 -3 16 -2 19 1 4 3 -2 6 -13 5 -11 0 -14 -3 -6 -6z"/>
<path d="M4190 4206 c0 -2 7 -7 16 -10 8 -3 12 -2 9 4 -6 10 -25 14 -25 6z"/>
<path d="M1932 3955 c0 -16 2 -22 5 -12 2 9 2 23 0 30 -3 6 -5 -1 -5 -18z"/>
<path d="M4351 2914 c0 -11 3 -14 6 -6 3 7 2 16 -1 19 -3 4 -6 -2 -5 -13z"/>
<path d="M3859 2089 c-23 -19 -23 -20 -2 -10 12 6 25 16 28 21 10 16 -1 12
-26 -11z"/>
<path d="M3683 1945 c0 -8 4 -12 9 -9 5 3 6 10 3 15 -9 13 -12 11 -12 -6z"/>
<path d="M2286 2232 c-3 -5 1 -9 9 -9 8 0 12 4 9 9 -3 4 -7 8 -9 8 -2 0 -6 -4
-9 -8z"/>
<path d="M2330 2196 c0 -2 7 -9 15 -16 9 -7 15 -8 15 -2 0 5 -7 12 -15 16 -8
3 -15 4 -15 2z"/>
<path d="M4462 3175 c0 -16 2 -22 5 -12 2 9 2 23 0 30 -3 6 -5 -1 -5 -18z"/>
<path d="M2184 2198 c-4 -7 -4 -10 1 -6 4 4 15 2 24 -5 14 -11 14 -10 2 6 -16
20 -18 21 -27 5z"/>
<path d="M3816 1952 c-3 -5 1 -9 9 -9 8 0 12 4 9 9 -3 4 -7 8 -9 8 -2 0 -6 -4
-9 -8z"/>
<path d="M3708 1872 c-12 -15 -11 -16 5 -3 12 10 20 11 30 2 10 -8 14 -7 14 2
0 19 -34 18 -49 -1z"/>
</g>
</svg>
